<?xml version="1.0" standalone="no"?>
<!DOCTYPE svg PUBLIC "-//W3C//DTD SVG 20010904//EN"
 "http://www.w3.org/TR/2001/REC-SVG-20010904/DTD/svg10.dtd">
<svg version="1.0" xmlns="http://www.w3.org/2000/svg"
 width="919.000000pt" height="915.000000pt" viewBox="0 0 919.000000 915.000000"
 preserveAspectRatio="xMidYMid meet">
<metadata>
Created by potrace 1.14, written by Peter Selinger 2001-2017
</metadata>
<g transform="translate(0.000000,915.000000) scale(0.100000,-0.100000)"
fill="#000000" stroke="none">
<path d="M4290 9019 c-574 -40 -1131 -191 -1655 -450 -1237 -608 -2124 -1760
-2395 -3109 -200 -996 -62 -2008 395 -2905 558 -1095 1542 -1911 2720 -2256
1010 -295 2095 -222 3063 207 731 324 1385 865 1845 1527 936 1345 1056 3102
312 4562 -559 1096 -1542 1911 -2720 2256 -495 145 -1050 204 -1565 168z m621
-159 c851 -65 1626 -359 2300 -872 822 -624 1398 -1543 1603 -2555 245 -1203
-37 -2455 -774 -3438 -233 -310 -541 -618 -855 -854 -506 -381 -1102 -649
-1727 -776 -1605 -327 -3272 299 -4266 1602 -1177 1546 -1177 3670 0 5216 691
906 1728 1505 2858 1652 269 34 606 44 861 25z"/>
<path d="M4398 8633 c-25 -3 -38 -9 -38 -19 0 -22 91 -548 95 -553 2 -2 6 7 9
20 6 29 36 456 36 517 0 46 2 46 -102 35z"/>
<path d="M4573 8608 c4 -18 18 -139 32 -268 27 -246 33 -285 41 -278 4 4 74
544 74 570 0 4 -34 8 -76 8 l-76 0 5 -32z"/>
<path d="M4770 8619 c-1 -65 35 -559 41 -559 5 0 18 70 88 473 l17 97 -35 0
c-20 0 -53 3 -73 6 -35 6 -38 5 -38 -17z"/>
<path d="M4212 8620 c-34 -4 -64 -9 -66 -11 -5 -5 117 -556 125 -563 6 -6 19
344 19 501 0 45 -3 82 -7 82 -5 -1 -36 -5 -71 -9z"/>
<path d="M4983 8434 c4 -104 7 -236 8 -294 0 -73 3 -99 10 -85 11 24 131 547
126 551 -2 2 -36 7 -77 10 l-73 7 6 -189z"/>
<path d="M3981 8589 c-24 -5 -46 -10 -48 -13 -6 -5 149 -556 156 -556 3 0 3
82 0 182 -4 101 -7 231 -8 291 l-1 107 -27 -1 c-16 -1 -48 -5 -72 -10z"/>
<path d="M5192 8594 c4 -16 -13 -508 -19 -541 -3 -18 -1 -33 4 -33 8 0 164
529 163 551 0 4 -19 9 -42 13 -24 4 -58 9 -76 12 -18 4 -32 2 -30 -2z"/>
<path d="M3785 8553 c-32 -8 -61 -16 -63 -18 -2 -2 38 -129 89 -282 51 -153
95 -270 97 -260 4 18 -35 489 -45 545 -3 17 -8 32 -12 31 -3 -1 -33 -8 -66
-16z"/>
<path d="M5406 8529 c-11 -65 -48 -508 -44 -530 3 -21 189 500 188 527 0 6
-17 14 -37 17 -21 4 -52 9 -70 13 -30 6 -32 4 -37 -27z"/>
<path d="M3570 8503 c-30 -9 -57 -17 -58 -19 -2 -1 45 -126 104 -276 60 -150
110 -266 112 -257 3 15 -63 500 -75 547 -6 26 -9 26 -83 5z"/>
<path d="M5615 8487 c-14 -83 -75 -517 -75 -533 1 -15 3 -14 14 6 25 47 208
511 203 516 -2 3 -34 13 -70 24 l-66 18 -6 -31z"/>
<path d="M3358 8439 l-57 -20 35 -77 c141 -311 208 -451 212 -447 3 3 -19 131
-49 285 -42 220 -57 280 -69 279 -8 0 -41 -10 -72 -20z"/>
<path d="M5825 8447 c-13 -40 -111 -557 -105 -557 7 0 46 81 176 363 49 105
69 159 61 162 -96 35 -128 43 -132 32z"/>
<path d="M3170 8372 c-36 -14 -66 -26 -68 -28 -3 -2 195 -383 245 -472 14 -24
27 -42 29 -39 3 3 -133 558 -139 563 -1 1 -31 -9 -67 -24z"/>
<path d="M6030 8388 c0 -2 -32 -127 -70 -278 -38 -151 -70 -279 -70 -285 0 -5
6 -1 14 10 20 30 267 497 264 500 -4 4 -130 55 -135 55 -2 0 -3 -1 -3 -2z"/>
<path d="M2970 8289 c-36 -15 -64 -32 -63 -37 2 -8 280 -481 289 -491 17 -19
1 40 -72 279 -47 151 -86 275 -87 276 -1 1 -31 -11 -67 -27z"/>
<path d="M6221 8278 c-121 -386 -161 -521 -158 -525 5 -4 93 136 225 359 l80
137 -65 30 c-36 17 -67 31 -68 31 -2 0 -8 -15 -14 -32z"/>
<path d="M2772 8197 c-35 -18 -60 -37 -58 -43 9 -22 318 -475 322 -471 2 2
-35 109 -82 238 -47 129 -90 248 -96 264 -6 17 -13 33 -17 36 -3 4 -34 -7 -69
-24z"/>
<path d="M6419 8193 c-70 -181 -189 -509 -186 -516 2 -6 76 99 166 232 90 133
161 244 159 246 -1 1 -31 17 -66 34 l-62 31 -11 -27z"/>
<path d="M2583 8093 c-39 -23 -59 -41 -55 -48 20 -35 338 -454 344 -455 9 0
-204 511 -221 532 -4 4 -34 -9 -68 -29z"/>
<path d="M6601 8078 c-167 -386 -211 -491 -207 -495 2 -2 83 100 179 228 l176
233 -32 19 c-18 11 -47 28 -65 39 l-32 20 -19 -44z"/>
<path d="M2398 7982 c-31 -20 -56 -40 -55 -44 4 -14 369 -449 373 -445 6 5
-248 527 -255 526 -3 0 -32 -17 -63 -37z"/>
<path d="M6675 7750 c-71 -142 -127 -261 -124 -264 4 -4 127 139 328 380 l51
62 -38 24 c-20 14 -48 32 -62 41 l-26 16 -129 -259z"/>
<path d="M2218 7856 l-56 -42 194 -209 c106 -116 198 -211 204 -213 6 -2 -4
23 -22 55 -166 298 -254 453 -258 452 -3 0 -30 -19 -62 -43z"/>
<path d="M6842 7638 c-78 -138 -140 -253 -139 -255 7 -6 397 404 397 418 0 3
-26 24 -58 47 l-58 41 -142 -251z"/>
<path d="M2053 7728 c-29 -22 -53 -44 -53 -48 0 -10 413 -410 418 -405 5 5
-303 495 -310 495 -2 0 -27 -19 -55 -42z"/>
<path d="M7002 7518 c-84 -132 -151 -245 -150 -249 2 -4 97 83 212 194 l209
202 -56 48 c-30 26 -57 47 -59 47 -1 0 -72 -109 -156 -242z"/>
<path d="M1882 7582 l-52 -47 222 -192 c122 -106 224 -190 226 -188 2 2 -50
79 -115 172 -180 254 -216 303 -222 303 -3 0 -30 -22 -59 -48z"/>
<path d="M7160 7394 c-164 -230 -192 -275 -154 -243 161 136 419 365 419 372
0 5 -23 29 -52 54 l-51 44 -162 -227z"/>
<path d="M4347 7560 c-603 -58 -1149 -278 -1617 -650 -135 -107 -353 -325
-460 -460 -196 -246 -365 -544 -474 -834 l-25 -66 57 0 57 0 34 88 c56 142
185 390 273 523 117 175 222 304 373 454 234 234 464 399 760 545 202 100 319
145 504 196 264 72 499 104 776 104 277 0 512 -32 776 -104 185 -51 302 -96
504 -196 296 -146 526 -311 760 -545 151 -150 256 -279 373 -454 88 -133 217
-381 273 -523 l34 -88 57 0 57 0 -25 66 c-109 290 -278 588 -474 834 -107 135
-325 353 -460 460 -427 340 -907 547 -1455 630 -158 24 -527 35 -678 20z"/>
<path d="M1732 7437 l-53 -54 226 -177 c125 -98 229 -175 232 -172 3 2 -71
100 -164 217 -92 117 -173 219 -178 226 -8 11 -22 2 -63 -40z"/>
<path d="M7296 7244 c-98 -124 -176 -227 -174 -229 4 -4 424 317 453 346 6 6
-9 28 -40 59 -27 28 -52 50 -55 50 -3 0 -85 -102 -184 -226z"/>
<path d="M1579 7277 l-47 -53 235 -164 c130 -91 240 -167 246 -169 6 -2 1 9
-12 25 -46 59 -363 414 -369 414 -4 0 -28 -24 -53 -53z"/>
<path d="M7440 7105 c-106 -119 -190 -218 -188 -220 4 -5 62 34 376 250 55 39
100 73 99 76 -1 3 -23 29 -49 58 l-46 51 -192 -215z"/>
<path d="M1441 7114 c-25 -32 -40 -59 -34 -63 109 -71 485 -302 488 -299 5 4
-394 418 -404 418 -3 0 -26 -25 -50 -56z"/>
<path d="M7571 6954 c-111 -114 -200 -209 -197 -211 6 -6 486 290 486 300 0 5
-20 33 -44 62 l-44 55 -201 -206z"/>
<path d="M1318 6953 c-19 -26 -37 -53 -41 -59 -4 -8 72 -55 216 -134 122 -68
237 -132 255 -142 17 -11 32 -16 32 -11 0 9 -404 385 -420 391 -4 2 -23 -19
-42 -45z"/>
<path d="M7692 6793 c-117 -108 -211 -197 -208 -200 3 -4 392 205 490 263 18
11 17 14 -19 65 -21 30 -41 57 -44 61 -3 3 -102 -82 -219 -189z"/>
<path d="M1191 6767 l-41 -62 257 -127 c142 -70 263 -127 268 -127 13 0 -33
40 -257 224 l-186 154 -41 -62z"/>
<path d="M7803 6627 c-122 -100 -222 -185 -222 -189 -1 -8 93 35 347 158 l182
89 -37 62 c-21 35 -40 62 -43 62 -3 0 -105 -82 -227 -182z"/>
<path d="M1076 6578 c-19 -35 -31 -65 -26 -66 6 -2 126 -53 267 -113 238 -100
297 -120 247 -84 -10 7 -113 84 -229 169 -115 86 -213 156 -217 156 -4 0 -23
-28 -42 -62z"/>
<path d="M7915 6460 c-224 -165 -272 -207 -203 -175 18 8 137 58 263 111 127
52 233 99 236 102 3 4 -10 35 -30 69 l-36 61 -230 -168z"/>
<path d="M976 6392 l-34 -68 274 -98 c151 -55 276 -97 278 -95 2 2 -106 77
-240 166 l-244 163 -34 -68z"/>
<path d="M8002 6277 c-133 -88 -241 -162 -238 -164 4 -4 536 183 545 192 5 5
-49 124 -59 130 -3 1 -114 -70 -248 -158z"/>
<path d="M885 6195 c-16 -36 -26 -67 -24 -69 10 -8 551 -167 555 -163 5 4
-459 281 -489 293 -10 3 -23 -15 -42 -61z"/>
<path d="M8095 6100 c-132 -77 -244 -141 -250 -143 -5 -3 -7 -7 -4 -10 4 -5
544 149 558 159 5 5 -51 134 -58 134 -4 0 -114 -63 -246 -140z"/>
<path d="M3932 6176 c-53 -25 -82 -63 -82 -110 0 -72 34 -101 150 -131 113
-29 138 -64 77 -108 -36 -28 -86 -25 -141 7 -49 29 -78 33 -94 13 -18 -21 9
-59 62 -86 38 -19 64 -25 115 -25 110 0 171 48 171 133 0 72 -38 104 -160 135
-93 24 -121 54 -82 89 34 31 74 31 132 2 42 -21 58 -25 75 -17 35 16 22 54
-27 82 -51 29 -149 37 -196 16z"/>
<path d="M4452 6179 c-44 -13 -116 -86 -132 -133 -20 -62 -9 -166 23 -214 86
-131 284 -131 373 0 26 39 29 50 29 129 0 77 -3 90 -28 127 -41 63 -94 94
-169 98 -35 2 -78 -1 -96 -7z m164 -110 c19 -18 39 -49 44 -69 18 -68 -25
-153 -90 -180 -91 -38 -196 74 -168 178 10 39 50 88 83 103 38 17 95 3 131
-32z"/>
<path d="M3192 6168 c-8 -8 -12 -57 -12 -156 l0 -144 -29 -29 c-40 -40 -67
-37 -111 11 -25 27 -45 40 -63 40 -36 0 -45 -38 -20 -80 58 -100 227 -101 286
-2 24 43 26 356 1 366 -24 9 -39 7 -52 -6z"/>
<path d="M3531 6166 c-14 -17 -151 -376 -151 -396 0 -23 20 -40 48 -40 18 0
28 11 47 55 l25 55 64 0 64 0 17 -45 c22 -55 37 -69 70 -61 19 5 25 13 25 35
0 36 -135 391 -152 403 -20 12 -44 10 -57 -6z"/>
<path d="M5703 6174 c-10 -4 -13 -58 -13 -220 l0 -214 26 -6 c54 -14 165 4
213 33 134 83 133 293 -1 376 -40 25 -60 30 -130 33 -46 2 -89 1 -95 -2z m155
-88 c66 -34 97 -99 79 -166 -16 -61 -76 -110 -137 -110 l-30 0 0 145 0 145 30
0 c17 0 43 -6 58 -14z"/>
<path d="M4927 6163 c-4 -3 -7 -100 -7 -214 l0 -209 25 -6 c47 -12 54 7 57
143 l3 124 94 -131 c52 -73 101 -134 108 -137 8 -3 25 -1 39 5 l24 12 0 198
c0 208 -3 222 -46 222 -36 0 -43 -21 -46 -142 l-3 -117 -94 130 c-80 111 -97
129 -120 129 -15 0 -31 -3 -34 -7z"/>
<path d="M826 6052 c-10 -17 -48 -123 -44 -126 7 -7 560 -138 564 -134 4 4
-496 268 -509 268 -3 0 -8 -4 -11 -8z"/>
<path d="M8335 6000 c-49 -26 -166 -87 -258 -135 -93 -48 -166 -89 -164 -91 4
-4 552 124 565 131 2 2 -48 139 -51 141 -1 0 -42 -20 -92 -46z"/>
<path d="M732 5793 c-12 -37 -20 -68 -18 -70 6 -7 570 -112 574 -108 3 3 -24
18 -59 34 -35 16 -148 67 -251 114 -103 47 -196 88 -206 91 -15 5 -22 -5 -40
-61z"/>
<path d="M8228 5722 c-142 -64 -258 -119 -258 -123 0 -4 19 -3 43 2 23 4 141
26 262 49 121 22 232 43 247 46 l26 5 -22 67 c-12 36 -27 67 -32 68 -5 1 -125
-50 -266 -114z"/>
<path d="M673 5586 l-20 -71 46 -8 c137 -23 531 -72 531 -67 0 4 -24 16 -52
28 -29 11 -150 58 -269 105 l-217 84 -19 -71z"/>
<path d="M8275 5526 c-147 -57 -251 -102 -238 -104 21 -3 554 66 561 72 2 2
-5 33 -15 70 -12 46 -22 66 -33 65 -8 -1 -132 -47 -275 -103z"/>
<path d="M635 5427 c-18 -79 -25 -120 -22 -123 2 -2 118 -12 258 -24 139 -11
269 -22 287 -24 77 -11 15 15 -243 101 -267 88 -275 91 -280 70z"/>
<path d="M8335 5335 c-250 -83 -275 -93 -230 -94 60 -1 526 37 533 44 2 2 -2
35 -9 73 l-14 69 -280 -92z"/>
<path d="M590 5213 c0 -10 -3 -41 -6 -69 l-7 -52 94 -6 c195 -11 493 -16 484
-8 -11 11 -523 152 -548 152 -10 0 -17 -8 -17 -17z"/>
<path d="M8363 5137 c-144 -40 -265 -75 -269 -80 -7 -7 353 -1 504 9 71 5 82
8 78 22 -2 10 -8 41 -11 70 -5 39 -11 52 -23 51 -10 0 -135 -33 -279 -72z"/>
<path d="M1830 5074 c-266 -58 -429 -267 -430 -549 0 -258 149 -457 385 -515
117 -28 305 -17 450 28 l60 18 3 252 c2 241 1 253 -18 272 -18 18 -33 20 -183
20 -191 0 -197 -2 -197 -87 0 -73 15 -83 123 -83 l87 0 0 -129 0 -130 -45 -7
c-25 -3 -85 -4 -133 -2 -189 9 -301 112 -333 306 -33 199 61 377 228 433 88
29 234 29 316 1 45 -16 59 -18 73 -8 18 13 56 124 48 138 -3 4 -35 17 -72 29
-86 27 -268 33 -362 13z"/>
<path d="M2739 5086 c-2 -2 -36 -6 -75 -9 -39 -4 -79 -9 -88 -13 -15 -6 -16
-53 -16 -523 0 -389 3 -520 12 -529 7 -7 40 -12 78 -12 103 0 101 -4 99 241
l-1 203 77 -2 c135 -3 163 -36 214 -244 17 -70 37 -143 45 -163 l15 -35 79 0
c73 0 80 2 89 23 6 13 7 30 3 38 -5 8 -25 80 -45 159 -43 169 -66 227 -105
265 l-29 28 53 48 c64 59 96 126 99 207 4 153 -86 269 -237 302 -47 11 -259
23 -267 16z m208 -171 c118 -35 151 -169 64 -256 -44 -44 -91 -59 -191 -59
l-75 0 2 162 c1 90 2 164 3 166 1 9 156 -1 197 -13z"/>
<path d="M3598 4558 c-205 -604 -200 -561 -69 -556 l74 3 54 160 53 160 162
-2 163 -1 55 -161 55 -161 80 0 c69 0 82 3 93 20 10 17 -12 91 -165 540 l-178
520 -100 0 -100 0 -177 -522z m279 -76 c-60 -1 -112 -1 -114 2 -3 3 21 81 52
175 l58 170 57 -172 56 -172 -109 -3z"/>
<path d="M4562 5068 c-17 -17 -17 -1039 0 -1056 7 -7 40 -12 78 -12 104 0 102
-6 98 259 l-3 221 223 0 222 0 0 -228 c0 -164 3 -231 12 -240 7 -7 40 -12 78
-12 108 0 100 -45 100 546 0 383 -3 513 -12 522 -7 7 -41 12 -83 12 -42 0 -76
-5 -83 -12 -9 -9 -12 -70 -12 -215 l0 -203 -221 2 -221 3 1 194 c2 233 3 231
-99 231 -38 0 -71 -5 -78 -12z"/>
<path d="M5758 4558 c-205 -604 -200 -561 -69 -556 l74 3 54 160 53 160 162
-2 163 -1 55 -161 55 -161 80 0 c69 0 82 3 93 20 10 17 -12 91 -165 540 l-178
520 -100 0 -100 0 -177 -522z m279 -76 c-60 -1 -112 -1 -114 2 -3 3 21 81 52
175 l58 170 57 -172 56 -172 -109 -3z"/>
<path d="M6739 5023 c0 -32 -2 -65 -4 -73 -1 -8 -6 -69 -10 -135 -4 -66 -8
-133 -10 -150 -2 -16 -6 -77 -10 -135 -3 -58 -8 -130 -10 -160 -3 -30 -7 -91
-10 -135 -3 -44 -8 -106 -11 -137 -8 -87 3 -98 98 -98 l78 0 1 38 c1 20 3 46
4 58 2 21 10 148 21 344 4 58 8 121 9 140 2 19 3 64 4 100 1 64 2 63 124 -300
l123 -365 71 -3 71 -3 20 53 c25 68 226 623 240 663 10 29 10 28 12 -20 0 -27
3 -75 5 -105 4 -55 9 -150 21 -355 3 -60 7 -126 9 -145 2 -19 3 -50 4 -67 l1
-33 79 0 c57 0 82 4 91 15 11 14 10 80 -5 285 -2 30 -7 102 -10 160 -3 58 -8
128 -10 155 -2 28 -7 106 -11 175 -4 69 -8 136 -9 150 -1 14 -3 51 -4 83 l-1
57 -108 0 -109 0 -88 -237 c-48 -131 -107 -296 -131 -368 -24 -71 -47 -137
-50 -145 -3 -8 -18 27 -34 80 -16 52 -74 223 -129 379 -56 156 -101 285 -101
287 0 2 -49 4 -110 4 l-110 0 -1 -57z"/>
<path d="M566 5008 c-3 -7 -7 -40 -9 -74 l-5 -61 202 4 c206 4 390 12 384 18
-3 3 -422 97 -536 120 -22 5 -33 3 -36 -7z"/>
<path d="M8395 4941 c-143 -32 -267 -60 -275 -63 -19 -7 142 -16 389 -22 l193
-5 -6 37 c-3 20 -6 54 -6 75 0 29 -4 37 -17 36 -10 -1 -135 -27 -278 -58z"/>
<path d="M545 4738 c-4 -38 -5 -72 -2 -75 6 -6 569 36 576 43 7 7 -26 14 -274
54 -137 22 -260 41 -272 43 -20 4 -22 -2 -28 -65z"/>
<path d="M8415 4741 c-154 -24 -282 -46 -284 -47 -2 -2 -2 -6 0 -8 4 -3 280
-27 487 -42 l92 -7 -1 54 c-2 106 26 101 -294 50z"/>
<path d="M540 4515 c0 -75 1 -77 23 -72 12 3 137 20 277 37 256 32 287 37 278
45 -3 4 -179 24 -520 61 l-58 6 0 -77z"/>
<path d="M8405 4539 c-137 -15 -257 -29 -265 -29 -42 -4 59 -22 270 -50 129
-16 250 -33 268 -35 l32 -6 0 76 0 75 -27 -1 c-16 -1 -140 -14 -278 -30z"/>
<path d="M549 4370 c-2 -16 3 -136 7 -139 4 -4 566 98 572 104 7 7 -85 15
-293 25 -121 6 -235 12 -252 13 -18 2 -33 1 -34 -3z"/>
<path d="M8408 4341 c-159 -8 -288 -18 -288 -23 0 -4 5 -8 10 -8 6 0 128 -22
272 -50 144 -27 269 -50 279 -50 15 0 18 11 21 71 2 39 1 72 -2 73 -3 1 -134
-5 -292 -13z"/>
<path d="M566 4093 c4 -38 9 -71 13 -74 8 -8 561 124 561 134 0 4 -131 7 -290
7 l-291 0 7 -67z"/>
<path d="M8110 4131 c8 -5 130 -36 270 -70 140 -34 263 -64 272 -67 18 -5 19
-2 33 104 l5 42 -297 0 c-169 0 -291 -4 -283 -9z"/>
<path d="M770 3958 c-96 -6 -177 -12 -179 -14 -4 -4 16 -134 22 -140 4 -4 549
155 556 162 7 6 -209 2 -399 -8z"/>
<path d="M8080 3952 c0 -6 531 -172 552 -172 3 0 8 19 12 43 4 23 9 56 12 73
l6 31 -259 12 c-142 6 -273 14 -290 17 -18 3 -33 1 -33 -4z"/>
<path d="M1105 3784 c-11 -2 -119 -13 -240 -24 -121 -12 -225 -23 -231 -25 -8
-3 -7 -23 4 -72 9 -37 17 -69 18 -71 3 -4 546 187 553 194 5 4 -72 3 -104 -2z"/>
<path d="M8040 3769 c0 -4 8 -9 18 -12 9 -3 131 -46 271 -97 139 -50 255 -89
258 -86 5 5 32 115 33 134 0 8 -15 12 -42 13 -24 0 -154 12 -290 28 -137 15
-248 24 -248 20z"/>
<path d="M945 3569 c-137 -22 -255 -42 -262 -44 -8 -3 -6 -23 9 -72 11 -37 21
-69 22 -70 3 -3 527 215 534 222 11 10 -60 2 -303 -36z"/>
<path d="M8000 3591 c0 -8 150 -74 440 -194 47 -19 88 -32 91 -29 8 9 42 133
37 136 -2 1 -127 22 -278 45 -151 24 -278 45 -282 48 -5 2 -8 0 -8 -6z"/>
<path d="M1811 3493 c41 -116 200 -421 286 -553 125 -188 234 -323 392 -481
228 -228 473 -407 758 -551 308 -157 578 -243 943 -299 123 -19 185 -23 415
-23 230 0 292 4 415 23 365 56 635 142 943 299 285 144 530 323 758 551 158
158 267 293 392 481 86 132 245 437 286 553 l21 57 -58 0 -57 0 -24 -62 c-45
-118 -181 -374 -263 -499 -117 -175 -222 -304 -373 -454 -450 -450 -987 -719
-1645 -822 -165 -26 -625 -26 -790 0 -545 86 -1005 284 -1415 612 -128 102
-338 312 -440 440 -162 203 -346 515 -426 723 l-24 62 -57 0 -58 0 21 -57z"/>
<path d="M2380 3450 c-20 -5 -49 -24 -67 -44 -28 -31 -33 -43 -33 -87 0 -46 4
-55 39 -90 36 -36 42 -39 98 -39 60 0 103 18 103 44 0 22 -27 26 -60 10 -83
-42 -167 57 -110 129 26 33 66 41 117 23 42 -15 53 -13 53 10 0 33 -81 58
-140 44z"/>
<path d="M2997 3450 c-44 -13 -57 -29 -57 -71 0 -43 17 -57 98 -78 47 -13 61
-33 42 -56 -16 -19 -70 -19 -96 0 -28 21 -54 19 -54 -5 0 -28 49 -50 110 -50
41 0 56 5 75 25 51 51 23 103 -69 130 -62 18 -74 29 -56 50 14 17 76 20 85 5
10 -16 55 -12 55 5 0 33 -82 60 -133 45z"/>
<path d="M3581 3453 c-62 -12 -101 -64 -101 -135 0 -78 50 -127 128 -128 83 0
132 48 132 130 0 91 -71 150 -159 133z m80 -72 c20 -20 29 -39 29 -61 0 -37
-47 -90 -80 -90 -33 0 -80 53 -80 90 0 37 47 90 80 90 12 0 35 -13 51 -29z"/>
<path d="M6007 3450 c-44 -13 -57 -29 -57 -71 0 -43 17 -57 98 -78 47 -13 61
-33 42 -56 -16 -19 -70 -19 -96 0 -28 21 -54 19 -54 -5 0 -28 49 -50 110 -50
41 0 56 5 75 25 51 51 23 103 -69 130 -62 18 -74 29 -56 50 14 17 76 20 85 5
10 -16 55 -12 55 5 0 33 -82 60 -133 45z"/>
<path d="M6454 3449 c-18 -5 -46 -25 -63 -44 -26 -30 -31 -44 -31 -87 0 -45 4
-54 39 -89 36 -36 42 -39 98 -39 86 0 105 16 101 88 l-3 57 -60 0 c-53 0 -60
-2 -60 -20 0 -16 8 -21 38 -23 31 -3 37 -7 37 -27 0 -49 -102 -37 -130 14 -25
48 5 114 58 126 15 3 46 -1 69 -9 42 -15 53 -13 53 10 0 34 -90 60 -146 43z"/>
<path d="M2607 3444 c-4 -4 -7 -45 -7 -91 0 -127 25 -163 115 -163 38 0 52 5
76 29 28 28 29 33 29 120 0 50 0 94 0 99 0 4 -10 7 -22 7 -20 0 -21 -4 -19
-75 2 -86 -12 -120 -52 -134 -22 -8 -31 -6 -51 14 -23 20 -26 32 -28 109 -2
68 -6 86 -18 89 -9 1 -19 0 -23 -4z"/>
<path d="M3194 3436 c-9 -24 5 -36 41 -36 l34 0 3 -107 c3 -100 4 -108 23
-108 19 0 20 8 23 107 l3 107 37 3 c29 2 37 7 37 23 0 18 -8 20 -98 23 -79 2
-98 0 -103 -12z"/>
<path d="M3834 3437 c-2 -7 -3 -67 -2 -133 3 -111 4 -119 23 -119 18 0 21 8
25 78 l5 79 23 -31 c29 -39 51 -39 80 2 l22 32 0 -72 c0 -60 3 -74 18 -82 11
-6 23 -6 28 -1 5 5 8 65 6 134 -3 114 -5 126 -21 126 -11 0 -33 -21 -52 -50
-19 -27 -37 -50 -41 -50 -3 0 -22 23 -42 50 -35 49 -62 63 -72 37z"/>
<path d="M4312 3438 c-8 -10 2 -42 37 -124 27 -62 51 -117 55 -123 13 -21 42
7 66 61 l23 53 19 -50 c21 -54 46 -81 61 -66 6 6 32 61 59 123 42 98 46 114
34 127 -18 17 -41 3 -52 -32 -4 -12 -18 -47 -31 -77 l-24 -55 -24 55 c-33 78
-54 78 -87 3 l-26 -58 -17 43 c-28 69 -59 126 -71 129 -6 2 -16 -2 -22 -9z"/>
<path d="M4765 3437 c-3 -7 -4 -66 -3 -131 l3 -118 80 0 c74 0 80 2 83 21 3
19 -1 21 -57 21 l-61 0 0 36 0 35 53 -2 c46 -3 52 -1 52 16 0 17 -8 20 -52 23
-51 3 -53 4 -53 32 0 28 1 29 58 32 49 3 57 6 57 23 0 18 -8 20 -78 23 -58 2
-79 -1 -82 -11z"/>
<path d="M5014 3437 c-2 -7 -3 -67 -2 -132 l3 -119 65 3 c55 1 68 6 88 27 26
30 28 61 5 94 -10 15 -16 39 -14 61 4 54 -24 79 -89 79 -33 0 -52 -5 -56 -13z"/>
<path d="M5404 3437 c-2 -7 -3 -67 -2 -132 l3 -119 55 3 c97 5 140 46 140 134
0 50 -24 88 -70 112 -36 19 -119 20 -126 2z"/>
<path d="M5705 3437 c-3 -7 -4 -66 -3 -131 l3 -118 80 0 c74 0 80 2 83 21 3
19 -1 21 -57 21 l-61 0 0 36 0 35 53 -2 c46 -3 52 -1 52 16 0 17 -8 20 -52 23
-51 3 -53 4 -53 32 0 28 1 29 58 32 49 3 57 6 57 23 0 18 -8 20 -78 23 -58 2
-79 -1 -82 -11z"/>
<path d="M6714 3437 c-2 -7 -3 -67 -2 -133 3 -111 4 -119 23 -119 18 0 21 8
25 78 l5 78 57 -80 c46 -63 62 -78 78 -74 19 5 20 13 20 129 0 104 -2 124 -15
124 -8 0 -18 0 -22 0 -5 0 -10 -34 -13 -76 l-5 -77 -58 82 c-57 78 -82 96 -93
68z"/>
<path d="M1240 3425 c-30 -7 -157 -34 -281 -61 l-227 -47 20 -61 c12 -34 24
-65 28 -70 9 -9 520 232 520 246 0 4 -1 8 -2 7 -2 -1 -28 -7 -58 -14z"/>
<path d="M7940 3413 c1 -8 485 -245 512 -251 9 -2 22 22 36 65 12 37 20 68 19
69 -1 1 -121 28 -267 59 -146 31 -273 58 -282 61 -10 3 -18 2 -18 -3z"/>
<path d="M1078 3187 c-148 -39 -268 -76 -268 -81 0 -20 45 -126 53 -126 11 0
507 270 507 276 0 8 -32 1 -292 -69z"/>
<path d="M7871 3236 c11 -10 500 -276 507 -276 15 0 62 131 49 136 -7 2 -128
35 -270 74 -231 63 -300 78 -286 66z"/>
<path d="M1160 3004 c-146 -48 -267 -88 -269 -90 -3 -3 46 -122 55 -133 4 -4
462 275 484 295 8 8 10 14 5 14 -6 -1 -129 -39 -275 -86z"/>
<path d="M7800 3072 c0 -4 17 -18 38 -31 69 -45 451 -281 455 -281 6 0 60 130
56 134 -11 9 -549 183 -549 178z"/>
<path d="M1242 2821 c-139 -54 -255 -101 -258 -104 -10 -9 60 -128 72 -123 16
6 464 317 464 322 0 11 -43 -4 -278 -95z"/>
<path d="M7720 2902 c1 -8 -10 -1 258 -187 117 -81 214 -146 216 -144 23 29
66 123 60 128 -5 4 -106 45 -224 91 -118 45 -236 91 -262 101 -27 10 -48 15
-48 11z"/>
<path d="M3694 2861 c-2 -2 -4 -59 -4 -126 0 -67 2 -124 4 -126 2 -2 41 -3 86
-1 69 3 81 6 78 20 -2 13 -16 18 -61 20 -56 3 -57 4 -57 32 0 27 2 29 48 32
39 3 47 6 47 23 0 17 -8 20 -47 23 -46 3 -48 5 -48 32 0 28 1 29 57 32 45 2
59 7 61 20 3 14 -9 17 -78 20 -45 2 -84 1 -86 -1z"/>
<path d="M3954 2852 c-57 -45 -34 -103 50 -127 66 -19 83 -36 61 -59 -20 -20
-65 -21 -91 -1 -25 19 -50 19 -58 0 -9 -24 51 -55 105 -55 61 0 99 28 99 74 0
41 -22 61 -82 76 -61 16 -80 36 -53 57 12 8 30 12 45 8 74 -18 82 -18 78 1 -8
42 -113 60 -154 26z"/>
<path d="M4183 2853 c-8 -21 7 -33 43 -33 l35 0 -2 -99 c-2 -105 3 -124 26
-114 12 4 15 27 15 109 l0 104 40 0 c22 0 40 5 40 10 0 6 0 13 0 18 0 13 -192
18 -197 5z"/>
<path d="M4728 2849 c-25 -14 -24 -59 1 -59 10 0 24 7 31 15 7 8 18 15 26 15
16 0 44 -28 44 -44 0 -8 -30 -43 -67 -78 -39 -39 -64 -71 -61 -79 4 -11 25
-13 92 -11 75 3 87 6 84 20 -2 12 -17 18 -48 22 l-45 5 36 28 c63 48 74 112
29 157 -22 22 -92 27 -122 9z"/>
<path d="M4976 2829 c-22 -26 -26 -40 -26 -94 0 -54 4 -68 26 -94 20 -24 34
-31 61 -31 19 0 42 4 52 10 21 11 51 79 51 115 0 36 -30 104 -51 115 -10 6
-33 10 -52 10 -27 0 -41 -7 -61 -31z"/>
<path d="M5386 2844 c-3 -9 -6 -38 -6 -65 0 -52 10 -60 49 -39 13 6 24 5 39
-6 48 -34 8 -101 -44 -74 -12 7 -30 10 -39 6 -16 -6 -16 -9 -2 -29 21 -33 101
-37 133 -6 54 51 17 159 -56 159 -20 0 -30 5 -30 15 0 11 13 15 53 15 58 0 68
4 60 26 -8 21 -149 20 -157 -2z"/>
<path d="M1450 2694 c-80 -36 -196 -88 -258 -116 l-112 -51 26 -46 c15 -25 33
-54 39 -64 11 -16 35 0 241 159 126 97 231 178 233 180 19 17 -47 -8 -169 -62z"/>
<path d="M3215 2730 c-14 -44 7 -50 166 -50 135 0 148 2 154 19 3 10 3 26 -1
35 -5 14 -27 16 -159 16 -146 0 -154 -1 -160 -20z"/>
<path d="M5705 2731 c-3 -10 -3 -26 1 -35 5 -14 26 -16 154 -16 158 0 179 6
165 50 -6 19 -14 20 -160 20 -141 0 -154 -2 -160 -19z"/>
<path d="M7635 2732 c11 -11 116 -95 234 -186 l214 -166 38 63 c21 34 35 65
31 68 -7 6 -490 225 -522 236 -10 4 -8 -1 5 -15z"/>
<path d="M1690 2599 c-8 -5 -124 -65 -257 -132 l-242 -123 41 -62 c35 -54 42
-60 57 -49 46 32 421 361 421 369 0 10 -1 10 -20 -3z"/>
<path d="M7571 2541 c29 -26 130 -114 223 -194 l170 -146 42 62 c23 34 41 63
40 63 -8 8 -515 264 -521 264 -5 0 16 -22 46 -49z"/>
<path d="M1564 2311 l-252 -146 29 -40 c64 -87 52 -84 111 -32 97 85 373 355
368 360 -3 2 -118 -61 -256 -142z"/>
<path d="M7420 2433 c0 -7 281 -281 376 -366 l42 -37 42 56 c35 47 40 58 29
68 -10 9 -385 230 -481 283 -5 2 -8 1 -8 -4z"/>
<path d="M4141 2317 c-6 -15 -14 -39 -17 -52 -6 -23 -11 -25 -67 -25 l-60 0
47 -35 c25 -20 46 -38 46 -40 0 -2 -4 -14 -9 -27 -4 -13 -11 -35 -15 -51 l-7
-27 42 30 c23 16 47 30 52 30 6 0 25 -12 44 -26 19 -14 37 -24 40 -21 3 3 -2
26 -10 51 l-16 46 46 32 45 33 -55 3 -55 3 -20 52 -20 52 -11 -28z"/>
<path d="M4556 2292 l-18 -52 -56 0 -57 -1 25 -20 c14 -12 34 -27 44 -35 18
-12 18 -17 7 -55 -7 -22 -15 -48 -18 -57 -4 -9 11 -3 40 16 25 18 48 32 52 32
4 0 27 -14 52 -32 29 -19 44 -25 40 -16 -3 9 -11 35 -18 57 -11 38 -11 43 7
55 10 8 30 23 44 35 l25 20 -57 1 c-39 0 -58 4 -59 13 0 6 -8 30 -18 52 l-18
40 -17 -53z"/>
<path d="M4976 2290 l-18 -49 -55 -3 -55 -3 45 -33 46 -32 -16 -46 c-8 -25
-13 -48 -10 -51 3 -3 21 7 40 21 19 14 38 26 44 26 5 0 29 -14 52 -30 l42 -30
-7 27 c-4 16 -11 38 -15 51 -5 13 -9 25 -9 27 0 2 21 20 46 40 l47 35 -60 0
-60 0 -13 45 c-7 25 -16 47 -20 50 -3 2 -14 -18 -24 -45z"/>
<path d="M1690 2155 c-129 -84 -235 -159 -235 -165 0 -13 77 -110 86 -107 3 1
83 85 179 187 231 246 225 240 214 240 -5 -1 -115 -70 -244 -155z"/>
<path d="M7301 2291 c2 -6 92 -105 199 -220 l195 -209 38 42 c68 75 75 63
-105 182 -278 183 -330 216 -327 205z"/>
<path d="M1818 2002 c-125 -92 -228 -171 -228 -175 0 -5 21 -31 48 -58 l47
-50 181 213 c187 221 201 238 187 237 -4 0 -110 -75 -235 -167z"/>
<path d="M7180 2154 c0 -8 199 -251 327 -400 l42 -49 51 50 c28 27 49 53 48
57 -2 3 -102 79 -223 168 -121 90 -226 167 -232 172 -7 6 -13 6 -13 2z"/>
<path d="M1979 1874 c-277 -225 -254 -194 -192 -256 29 -29 54 -50 56 -48 70
88 348 463 345 466 -3 2 -96 -71 -209 -162z"/>
<path d="M7050 2020 c0 -11 326 -447 342 -456 11 -7 110 85 102 97 -10 17
-444 368 -444 359z"/>
<path d="M2101 1718 l-212 -193 52 -48 c29 -26 56 -46 61 -45 11 5 329 478
320 478 -4 0 -104 -87 -221 -192z"/>
<path d="M6910 1895 c0 -4 73 -114 161 -245 l162 -239 53 46 c30 25 54 48 54
52 0 7 -379 355 -412 379 -10 7 -18 10 -18 7z"/>
<path d="M2257 1592 l-208 -208 60 -46 c43 -34 62 -44 69 -35 23 30 294 489
290 492 -2 2 -97 -89 -211 -203z"/>
<path d="M6773 1768 c3 -9 69 -123 147 -253 99 -165 145 -233 153 -228 28 17
106 78 107 83 0 3 -93 97 -206 210 -114 113 -204 197 -201 188z"/>
<path d="M2584 1657 c-16 -19 -102 -116 -191 -216 -90 -100 -163 -185 -163
-189 0 -14 112 -84 120 -76 16 18 272 506 267 510 -3 3 -18 -10 -33 -29z"/>
<path d="M6620 1663 c0 -7 228 -439 256 -487 12 -20 12 -20 127 55 8 5 -367
439 -379 439 -2 0 -4 -3 -4 -7z"/>
<path d="M2586 1361 c-97 -121 -176 -225 -176 -230 0 -13 114 -82 121 -73 14
17 241 513 237 518 -3 3 -85 -94 -182 -215z"/>
<path d="M6460 1566 c0 -5 239 -518 244 -523 5 -5 126 71 123 78 -1 3 -81 105
-177 227 -153 193 -190 235 -190 218z"/>
<path d="M2905 1461 c-96 -130 -315 -439 -315 -444 0 -3 29 -21 64 -39 l63
-34 108 268 c59 148 106 270 104 272 -2 3 -13 -8 -24 -23z"/>
<path d="M6300 1475 c0 -15 213 -535 219 -535 20 0 122 64 118 74 -6 16 -327
466 -333 466 -2 0 -4 -2 -4 -5z"/>
<path d="M3049 1343 c-20 -32 -89 -140 -153 -240 -64 -99 -116 -184 -116 -187
0 -11 123 -67 130 -59 4 4 47 125 96 267 49 143 91 263 92 268 2 4 0 8 -5 8
-4 0 -24 -26 -44 -57z"/>
<path d="M6140 1383 c0 -12 168 -511 178 -530 6 -10 23 -5 74 20 l65 32 -151
237 c-155 243 -166 259 -166 241z"/>
<path d="M3227 1273 c-57 -95 -247 -431 -249 -443 -2 -6 27 -24 63 -40 l67
-28 80 281 c44 155 79 283 77 285 -1 2 -19 -23 -38 -55z"/>
<path d="M5970 1308 c0 -20 147 -538 154 -546 3 -3 35 7 71 22 60 26 64 30 53
50 -20 37 -270 481 -274 485 -2 2 -4 -3 -4 -11z"/>
<path d="M3300 1001 l-130 -261 27 -11 c71 -28 107 -39 111 -34 8 8 133 558
128 563 -3 2 -64 -113 -136 -257z"/>
<path d="M5794 1233 c3 -10 30 -130 61 -268 31 -137 58 -258 61 -267 4 -15 10
-15 69 5 36 12 65 26 66 30 3 14 -243 517 -253 517 -5 0 -7 -8 -4 -17z"/>
<path d="M3492 941 c-62 -142 -112 -263 -112 -268 0 -5 31 -19 68 -30 l69 -20
48 276 c26 152 50 282 52 289 3 6 1 12 -4 12 -5 0 -59 -116 -121 -259z"/>
<path d="M5621 1180 c-1 -25 88 -552 94 -558 2 -2 35 6 73 17 l70 21 -109 253
c-140 323 -127 298 -128 267z"/>
<path d="M3685 888 c-54 -145 -100 -268 -102 -274 -2 -6 27 -17 69 -26 40 -9
73 -15 74 -14 6 8 68 576 63 576 -3 0 -50 -118 -104 -262z"/>
<path d="M5445 1085 c6 -87 56 -509 60 -513 4 -5 115 19 132 27 7 4 -19 88
-83 261 -116 314 -116 315 -109 225z"/>
<path d="M3960 1105 c0 -3 -38 -128 -85 -277 -47 -149 -84 -272 -83 -273 7 -4
141 -26 143 -23 2 2 10 118 19 258 9 140 19 270 22 288 3 19 1 32 -6 32 -5 0
-10 -2 -10 -5z"/>
<path d="M5260 1052 c0 -75 30 -515 36 -521 9 -10 145 22 141 33 -2 6 -42 130
-87 276 -45 146 -84 267 -86 269 -2 2 -4 -23 -4 -57z"/>
<path d="M4147 1070 c-4 -8 -38 -134 -76 -280 -47 -183 -65 -267 -57 -271 6
-4 39 -9 72 -13 l62 -7 7 273 c7 267 5 330 -8 298z"/>
<path d="M5070 948 c0 -73 3 -204 7 -291 l6 -159 66 7 c36 4 68 9 71 12 7 7
-134 563 -142 563 -5 0 -8 -60 -8 -132z"/>
<path d="M4328 1039 c-50 -238 -109 -542 -106 -545 2 -2 37 -7 77 -10 l73 -7
-5 29 c-4 16 -9 139 -13 274 -6 237 -14 316 -26 259z"/>
<path d="M4886 1008 c-3 -29 -8 -141 -11 -248 -3 -107 -8 -215 -11 -239 l-6
-44 72 5 c39 3 73 8 76 11 5 5 -102 556 -110 564 -2 2 -6 -20 -10 -49z"/>
<path d="M4516 1033 c-3 -10 -21 -126 -40 -258 -20 -132 -38 -255 -41 -272
l-6 -33 76 0 c42 0 75 4 75 10 0 27 -52 565 -55 568 -2 2 -6 -5 -9 -15z"/>
<path d="M4696 983 c-14 -137 -46 -479 -46 -495 0 -16 10 -18 76 -18 67 0 75
2 70 18 -2 9 -22 140 -43 289 -21 150 -41 273 -44 273 -3 0 -9 -30 -13 -67z"/>
</g>
</svg>
